<svg xmlns="http://www.w3.org/2000/svg" xmlns:xlink="http://www.w3.org/1999/xlink" width="600" height="300" viewBox="0 0 600 300"><path fill="#cf142b" d="M0 0h600v300H0z"/><g fill="#f9dd16" stroke="#000"><g id="a"><path d="M225.97 126.35a23 23 0 0 0 2.9 1.73c.05-.1 6.9-1.67 6.86-1.59-.05.1-3.84 4.6-3.67 4.7.18.09 3.97 4.63 4.06 4.67s-7.18-.6-7.18-.6l-4.8 3.88-1.08-5.03s-6.05-2.13-6.14-2.18c-.09-.04 5.18-1.78 5.18-1.78l1.57-4.1s2.03.38 2.3.3z"/><path fill="#fff" stroke-width="1.3" d="M314.47 136.2c.01-4.24-8.34-23.42-9.71-26.37a38 38 0 0 1-6.43-12.65c-.75-4.42-3.12-7.88-6.45-9.06-3.84-2.04-7.6-1.24-11.21-.92a6.3 6.3 0 0 0-4.15 2.74c-1.95 2.8-3.01 2.58-4.36 3.78-11.11 1.73-21.62 7.47-29.62 11.38-4.23 2.94-7.83 4.64-9.5 5-4.5.02-7.79-2.12-9.36-3.26L208.35 92.9c-4.43-3.31-5.53 1.46-4.68 2.2 1.48 3.17-1.72 5.1 10.44 16.56l4.6 9.47s-.25 2.59-.04 2.7c2.22 5.29 5.75 3.97 7.42 2.48l3.6-3.29s7.17-2.26 7.28-2.48c7.68 1.15 27.46-2.62 30.73-4.17 2.94-1.65 3.13-.25 5.67-2.33 2.13-1.4.96-.29 4.9-3.88 1.2-1.04 2.16.64 2.39 1.82.22 11.17 1.59 18.3 2.6 29.44L300 150z"/><path stroke="none" d="M217.84 102.28c.15.14-2.77 9.63-2.77 9.63s-2.68-2.68-2.66-2.72l1.88-9.98z"/><g fill="none"><path stroke-width="1.13" d="M217.92 101.93c-.13.64-.7 3.5-.96 4.29q-.34 1.3-.56 2.6c-.27.95-.39 1.57-.69 2.55q-.16 1.23-.48 2.45m-1.85-16.25c.05.13.27.99.3 1.55-.1.58-.26 2.66-.48 3.37q-.28 1.17-.44 2.36c-.22.86-.31 1.42-.56 2.3a15 15 0 0 1-.37 2.23"/><path d="M262.23 96.64c3.58 3.98 4.68 10.45 4.04 14.07m-17.89 9.51.07-.12c-.2.39-.05.16-.43-.7-.4-.45-.7-2.62-.07-3.83.24-.61.64-1.54.95-2.12.08-.16.32-.33.41-.5m-26.51-6.17-.07.12-.26.5c-.33.65-.78 1.24-1.1 1.8-.31.63-.81 1.16-1.14 1.78-.41.58-.78 1.36-1.2 1.96-.41.71-.86 1.22-1.25 1.98-.34.6-.62.88-.97 1.56l.97-1.56c-.34.6-.62.88-.97 1.56m-7.01-21.82c.07.11.3.93.36 1.45-.08.54-.17 2.48-.36 3.13q-.24 1.09-.35 2.19c-.19.8-.26 1.31-.47 2.13q-.06 1.03-.29 2.06m16.71 11.94c-.85-.89-1.34-.56-1.88-.6-.6.1-1.68.6-2.79 1.71-.4.44-.74.76-1.27 1.24-.24.37-.44.51-.7.74m69.72-32.89-.07.13c.2-.4.06-.17.24.75.24.64.27 1.09.54 1.7m-13.77.88c-.04.08-.15 9.12.22 10.28.11.75.31 1.37.42 2.26 0 .54.12.99.16 1.51.3.58.37 1.16.69 1.62.15.64.66.66.93 1.26.39.41 1.02 1.14 1.4 1.46m-10.1 6.34c-.28-.1-.99-.66-1.6-.96-.69-.39-2.38-2.41-2.46-3.83"/><path d="M275.9 103.13c-.02.04-.94.95-2.45 2.48-1.92 1.78-7.17 4.85-7.8 5.1-.6.27-1.35.93-1.95 1.02-.69.28-1.37.38-2.02.54q-1.17.26-2.07.34c-1.84.8-11.56.5-12.06.38-.52 0-1.22-.04-1.69-.09-.46.11-1 .07-1.63.1-.76-.06-1.2.09-1.83.17-.5.26-1.33.53-1.9.9-.76.32-1.23.74-1.76.98-.56.46-8.11 4.87-8.48 5.07-.8.35-3.64 1.2-4.35-.8-.19-.8-.55-1.6-.57-2.21-.23-.72-.1-1.5-.06-2.17.66-3.4 1.75-4.75 2.05-5.33l.33-.62m70.22-12.55-.06.12c.17-.33.1-.16-.39.44-.48.39-1.08 1.01-1.52 1.42-.45.44-.88 1.06-1.28 1.23-.4.53-.9.7-1.46.98a10 10 0 0 0-1.9.92c-.81.43-1.32.85-2.08 1.28-.47.6-.95.97-1.35 1.68-.39.65-.78 1.2-1.15 1.92l-.91 1.75.9-1.75-.9 1.75m5.79 36.04.13-.25c-.24.47-.16.34.07-.43 0-.94.22-2.06.23-2.89.14-.87.28-1.8.3-2.7-.06-1.02-.06-1.95-.21-2.94-.02-.92-.12-1.87-.15-2.77s-.08-1.65-.28-2.51a15 15 0 0 0-.21-2.33c.08-.62-.1-1.2-.23-1.7-.24-.96-.33-1.52-.59-2.51q-.2-.81-.53-2.02c-.08-.76-.49-1.74-.65-2.4a7 7 0 0 1-.54-1.7c-.24-.52-.57-1.17-.67-1.76-.24-.46-.5-1.17-.78-1.84-.24-.55-.41-1.22-.67-1.76-.25-.68-.56-1.27-.72-1.96-.24-.23-.3-.5-.43-.7"/></g><path d="M289.89 91.74c-.85 1.93-3.02 4.75-3.05 4.81l-2.08 4.14c-.9 2.27-.33 3.18.07 3.83.83 1.46.97 2.25 1.58 3.35.23 1.39-2.22 1.85-2.25 1.92-5.11 1.77-7.7-3.14-7.73-3.39-.7-2.57-.6-3 .96-3.53 1.8-.4 2.52-.43 3.4-1.07 1.69-1.27 2.87-5.08 2.9-5.14.04-.06.26-2.16.26-2.16.13-1.01-.34-1.94.18-3.54.67-1.55 1.07-1.97 2.67-2.1 2.07-.18 3.68 1.28 3.09 2.88z"/></g><use xlink:href="#a" transform="rotate(120 300 150)"/><use xlink:href="#a" transform="rotate(240 300 150)"/><path stroke-width="1.3" d="M304.62 169.37c-1.78-.9-3.13-1.08-3.78-.65-1.02-5.74-1.93-11.5-3.25-17.22-10.9-4.54-13.2-5.58-16.77-7.13 1.67-1.08 2.5-2.17 2.45-2.95 5.49 1.99 10.92 4.08 16.54 5.8 9.38-7.17 11.43-8.64 14.56-10.96.1 1.99.62 3.25 1.33 3.6-4.47 3.75-9 7.41-13.3 11.42 1.52 11.7 1.78 14.22 2.22 18.09z"/></g></svg>